# xmcd
#
# Track frame offsets:
#	150
#	14697
#	31370
#	48605
#	61160
#	74005
#	85855
#	105172
#	129007
#	141105
#	156277
#	170237
#	182515
#	198367
#	214485
#	231307
#
# Disc length: 3275 seconds
#
# Revision: 2
# Processed by: cddbd v1.5.2PL0 Copyright (c) Steve Scherf et al.
# Submitted via: audiograbber 1.83.01
#
DISCID=e50cc910
DTITLE=Geir Ødegården - Gamle jenter !
DYEAR=2003
DGENRE=Country
TTITLE0=Gamle Jenter
TTITLE1=Before The Next Teardrop Falls
TTITLE2=De Sista Ljuva Åren - duett med Liv Marit Wedvik
TTITLE3=Wasted Day And Wasted Nights
TTITLE4=My Girl Josephine
TTITLE5=The Great Pretender
TTITLE6=Jenter Som Kommer - Jenter Som Går
TTITLE7=Heile Livet Med Deg - duett med Liv Marit Wedvik
TTITLE8=Okie From Muskogee
TTITLE9=Bye Bye, Baby Goodbye
TTITLE10=Green Green Grass Of Home
TTITLE11=Line
TTITLE12=Cryn' Time
TTITLE13=Cotton Filds
TTITLE14=Wonderful Tonight
TTITLE15=Gamle Jenter, Main Night Mix
EXTD=
EXTT0=
EXTT1=
EXTT2=
EXTT3=
EXTT4=
EXTT5=
EXTT6=
EXTT7=
EXTT8=
EXTT9=
EXTT10=
EXTT11=
EXTT12=
EXTT13=
EXTT14=
EXTT15=
PLAYORDER=
